<svg width="64" height="64" viewBox="0 0 64 64" fill="none" xmlns="http://www.w3.org/2000/svg">
<g clip-path="url(#clip0_301_2472)">
<rect width="64" height="64" fill="#111110"/>
<path d="M17.04 52.54C16.24 52.54 15.34 52.46 14.34 52.3C13.38 52.14 12.46 51.94 11.58 51.7C10.74 51.46 10.08 51.2 9.6 50.92C9.32 50.76 9.1 50.6 8.94 50.44C8.82 50.24 8.76 49.92 8.76 49.48L8.46 40.06C8.46 39.26 8.72 38.86 9.24 38.86C9.68 38.86 9.98 39.22 10.14 39.94L10.68 42.22C12.04 47.94 14.58 50.8 18.3 50.8C20.3 50.8 21.88 50.14 23.04 48.82C24.24 47.46 24.84 45.56 24.84 43.12C24.84 40.76 24.22 38.56 22.98 36.52C21.78 34.48 19.84 32.46 17.16 30.46C14.2 28.34 12.04 26.3 10.68 24.34C9.32 22.34 8.64 20.22 8.64 17.98C8.64 15.02 9.66 12.66 11.7 10.9C13.78 9.1 16.42 8.2 19.62 8.2C20.82 8.2 21.98 8.34 23.1 8.62C24.22 8.9 25.14 9.3 25.86 9.82C26.1 9.98 26.28 10.16 26.4 10.36C26.56 10.56 26.64 10.82 26.64 11.14L26.82 20.2C26.82 20.88 26.56 21.22 26.04 21.22C25.68 21.22 25.42 20.94 25.26 20.38L24.84 18.88C23.96 15.8 23.04 13.56 22.08 12.16C21.16 10.72 19.82 10 18.06 10C16.34 10 14.96 10.56 13.92 11.68C12.92 12.8 12.42 14.38 12.42 16.42C12.42 18.14 12.98 19.78 14.1 21.34C15.22 22.9 17.18 24.8 19.98 27.04C22.98 29.48 25.16 31.84 26.52 34.12C27.92 36.36 28.62 38.76 28.62 41.32C28.62 43.56 28.12 45.52 27.12 47.2C26.12 48.88 24.74 50.2 22.98 51.16C21.26 52.08 19.28 52.54 17.04 52.54ZM30.2536 52C29.6536 52 29.3536 51.8 29.3536 51.4C29.3536 51 29.6336 50.74 30.1936 50.62L31.0936 50.44C31.8936 50.28 32.4936 49.9 32.8936 49.3C33.2936 48.66 33.6336 47.78 33.9136 46.66L43.2136 9.16C43.2936 8.76 43.4136 8.5 43.5736 8.38C43.7736 8.26 43.9536 8.2 44.1136 8.2C44.3136 8.2 44.4936 8.26 44.6536 8.38C44.8536 8.5 44.9936 8.76 45.0736 9.16L54.5536 47.2C54.8336 48.32 55.1536 49.1 55.5136 49.54C55.8736 49.98 56.4336 50.28 57.1936 50.44L58.0936 50.62C58.6536 50.74 58.9336 51 58.9336 51.4C58.9336 51.8 58.6336 52 58.0336 52H47.7736C47.2136 52 46.9336 51.78 46.9336 51.34C46.9336 50.9 47.2736 50.66 47.9536 50.62L49.0936 50.5C49.7736 50.42 50.1936 50.2 50.3536 49.84C50.5536 49.48 50.5536 48.86 50.3536 47.98L48.0736 38.68C47.8336 37.64 47.1736 37.12 46.0936 37.12H39.7936C38.7536 37.12 38.0936 37.64 37.8136 38.68L35.7736 46.72C35.1736 49 35.7736 50.26 37.5736 50.5L38.4736 50.62C39.1536 50.74 39.4936 50.98 39.4936 51.34C39.4936 51.78 39.2136 52 38.6536 52H30.2536ZM39.6136 35.32H46.2136C46.8536 35.32 47.1136 34.98 46.9936 34.3L43.1536 18.22H42.8536L38.8336 34.3C38.7136 34.98 38.9736 35.32 39.6136 35.32Z" fill="#FAFAF8"/>
</g>
<defs>
<clipPath id="clip0_301_2472">
<rect width="64" height="64" fill="white"/>
</clipPath>
</defs>
</svg>
